<svg width="153" height="176" viewBox="0 0 153 176" fill="none" xmlns="http://www.w3.org/2000/svg">
<path d="M130 161C130 162.546 128.85 164.258 126.172 166.001C123.536 167.716 119.656 169.298 114.772 170.642C105.018 173.327 91.4865 175 76.5 175C61.5135 175 47.9819 173.327 38.228 170.642C33.344 169.298 29.464 167.716 26.8283 166.001C24.1499 164.258 23 162.546 23 161C23 159.454 24.1499 157.742 26.8283 155.999C29.464 154.284 33.344 152.702 38.228 151.358C47.9819 148.673 61.5135 147 76.5 147C91.4865 147 105.018 148.673 114.772 151.358C119.656 152.702 123.536 154.284 126.172 155.999C128.85 157.742 130 159.454 130 161Z" stroke="#5B5B5B" stroke-width="2"/>
<path d="M139 147.5C139 149.392 137.597 151.432 134.464 153.474C131.373 155.488 126.834 157.34 121.136 158.91C109.753 162.047 93.9717 164 76.5 164C59.0283 164 43.2468 162.047 31.8644 158.91C26.1661 157.34 21.6271 155.488 18.5361 153.474C15.4026 151.432 14 149.392 14 147.5C14 145.608 15.4026 143.568 18.5361 141.526C21.6271 139.512 26.1661 137.66 31.8644 136.09C43.2468 132.953 59.0283 131 76.5 131C93.9717 131 109.753 132.953 121.136 136.09C126.834 137.66 131.373 139.512 134.464 141.526C137.597 143.568 139 145.608 139 147.5Z" stroke="#5B5B5B" stroke-width="2"/>
<path d="M145 132C145 132.79 144.656 133.642 143.841 134.56C143.019 135.484 141.762 136.423 140.06 137.35C136.658 139.201 131.67 140.9 125.42 142.339C112.936 145.213 95.6395 147 76.5 147C57.3605 147 40.0643 145.213 27.5804 142.339C21.3304 140.9 16.3417 139.201 12.9397 137.35C11.2382 136.423 9.98078 135.484 9.15941 134.56C8.34354 133.642 8 132.79 8 132C8 131.21 8.34354 130.358 9.15941 129.44C9.98078 128.516 11.2382 127.577 12.9397 126.65C16.3417 124.799 21.3304 123.1 27.5804 121.661C40.0643 118.787 57.3605 117 76.5 117C95.6395 117 112.936 118.787 125.42 121.661C131.67 123.1 136.658 124.799 140.06 126.65C141.762 127.577 143.019 128.516 143.841 129.44C144.656 130.358 145 131.21 145 132Z" stroke="#5B5B5B" stroke-width="2"/>
<path d="M152 116C152 116.757 151.638 117.599 150.731 118.525C149.821 119.455 148.428 120.401 146.545 121.332C142.784 123.191 137.276 124.894 130.389 126.335C116.631 129.212 97.5774 131 76.5 131C55.4226 131 36.3694 129.212 22.6111 126.335C15.7237 124.894 10.2163 123.191 6.455 121.332C4.57247 120.401 3.179 119.455 2.269 118.525C1.36239 117.599 1 116.757 1 116C1 115.243 1.36239 114.401 2.269 113.475C3.179 112.545 4.57247 111.599 6.455 110.668C10.2163 108.809 15.7237 107.106 22.6111 105.665C36.3694 102.788 55.4226 101 76.5 101C97.5774 101 116.631 102.788 130.389 105.665C137.276 107.106 142.784 108.809 146.545 110.668C148.428 111.599 149.821 112.545 150.731 113.475C151.638 114.401 152 115.243 152 116Z" stroke="#5B5B5B" stroke-width="2"/>
<path d="M45.2929 76.7071C45.6834 77.0976 46.3166 77.0976 46.7071 76.7071L53.0711 70.3431C53.4616 69.9526 53.4616 69.3195 53.0711 68.9289C52.6805 68.5384 52.0474 68.5384 51.6569 68.9289L46 74.5858L40.3431 68.9289C39.9526 68.5384 39.3195 68.5384 38.9289 68.9289C38.5384 69.3195 38.5384 69.9526 38.9289 70.3431L45.2929 76.7071ZM45 29L45 76L47 76L47 29L45 29Z" fill="#5B5B5B"/>
<path d="M101.293 82.7071C101.683 83.0976 102.317 83.0976 102.707 82.7071L109.071 76.3431C109.462 75.9526 109.462 75.3195 109.071 74.9289C108.681 74.5384 108.047 74.5384 107.657 74.9289L102 80.5858L96.3431 74.9289C95.9526 74.5384 95.3195 74.5384 94.9289 74.9289C94.5384 75.3195 94.5384 75.9526 94.9289 76.3431L101.293 82.7071ZM101 35L101 82L103 82L103 35L101 35Z" fill="#5B5B5B"/>
<path d="M72.7071 0.292893C72.3166 -0.0976311 71.6834 -0.0976311 71.2929 0.292893L64.9289 6.65685C64.5384 7.04738 64.5384 7.68054 64.9289 8.07107C65.3195 8.46159 65.9526 8.46159 66.3431 8.07107L72 2.41421L77.6569 8.07107C78.0474 8.46159 78.6805 8.46159 79.0711 8.07107C79.4616 7.68054 79.4616 7.04738 79.0711 6.65685L72.7071 0.292893ZM73 48L73 1L71 1L71 48L73 48Z" fill="#5B5B5B"/>
</svg>
